<?xml version="1.0" standalone="no"?>
<!DOCTYPE svg PUBLIC "-//W3C//DTD SVG 20010904//EN"
 "http://www.w3.org/TR/2001/REC-SVG-20010904/DTD/svg10.dtd">
<svg version="1.0" xmlns="http://www.w3.org/2000/svg"
 width="260.000000pt" height="260.000000pt" viewBox="0 0 260.000000 260.000000"
 preserveAspectRatio="xMidYMid meet">
<metadata>
Created by potrace 1.14, written by Peter Selinger 2001-2017
</metadata>
<g transform="translate(0.000000,260.000000) scale(0.100000,-0.100000)"
fill="#000000" stroke="none">
<path d="M0 1300 l0 -1300 1300 0 1300 0 0 1300 0 1300 -1300 0 -1300 0 0
-1300z m1563 801 c21 -5 41 -12 44 -14 3 -3 -9 -68 -25 -144 -50 -227 -51
-200 4 -209 129 -19 263 -83 333 -159 68 -74 95 -143 99 -251 2 -51 -1 -117
-8 -148 -19 -93 -83 -208 -154 -279 -116 -114 -238 -168 -427 -189 l-114 -13
-20 -95 -20 -95 -146 -3 -146 -3 20 96 c11 52 18 97 16 100 -3 2 -41 10 -84
16 -115 16 -200 53 -261 114 -88 87 -126 183 -126 316 0 213 86 362 273 472
72 42 249 101 354 117 l71 11 30 145 30 144 -27 0 c-64 0 -206 -32 -252 -58
-69 -37 -90 -78 -83 -159 l5 -63 -42 0 c-53 0 -120 31 -142 64 -13 20 -16 40
-13 83 5 52 9 60 50 98 60 53 188 100 328 118 57 8 392 -1 433 -12z m-1009
-436 c-4 -8 -10 -12 -15 -9 -14 8 -10 24 6 24 9 0 12 -6 9 -15z"/>
<path d="M1135 1611 c-163 -58 -244 -145 -285 -306 -39 -152 -22 -319 41 -411
26 -39 112 -94 145 -94 6 0 17 28 23 63 18 92 107 515 136 644 14 62 25 115
25 118 0 9 -34 4 -85 -14z"/>
<path d="M1510 1616 c0 -9 -36 -181 -79 -384 -43 -202 -82 -382 -85 -401 l-6
-34 47 7 c156 21 296 166 348 361 19 73 22 228 5 281 -30 92 -107 164 -192
179 -31 6 -38 4 -38 -9z"/>
</g>
</svg>
